<svg id="visual" viewBox="0 0 1920 1080" width="1920" height="1080" xmlns="http://www.w3.org/2000/svg" xmlns:xlink="http://www.w3.org/1999/xlink" version="1.1"><rect x="0" y="0" width="1920" height="1080" fill="#FFFFFF"></rect><path d="M1340 1080L1362 1044C1384 1008 1428 936 1380.3 864C1332.7 792 1193.3 720 1163.2 648C1133 576 1212 504 1159.7 432C1107.3 360 923.7 288 872.5 216C821.3 144 902.7 72 943.3 36L984 0L1920 0L1920 36C1920 72 1920 144 1920 216C1920 288 1920 360 1920 432C1920 504 1920 576 1920 648C1920 720 1920 792 1920 864C1920 936 1920 1008 1920 1044L1920 1080Z" fill="#c90a02"></path><path d="M1210 1080L1287.2 1044C1364.3 1008 1518.7 936 1486.2 864C1453.7 792 1234.3 720 1114.2 648C994 576 973 504 1054.8 432C1136.7 360 1321.3 288 1356.5 216C1391.7 144 1277.3 72 1220.2 36L1163 0L1920 0L1920 36C1920 72 1920 144 1920 216C1920 288 1920 360 1920 432C1920 504 1920 576 1920 648C1920 720 1920 792 1920 864C1920 936 1920 1008 1920 1044L1920 1080Z" fill="#d21c10"></path><path d="M1145 1080L1208.2 1044C1271.3 1008 1397.7 936 1437.7 864C1477.7 792 1431.3 720 1449.5 648C1467.7 576 1550.3 504 1602.8 432C1655.3 360 1677.7 288 1629.3 216C1581 144 1462 72 1402.5 36L1343 0L1920 0L1920 36C1920 72 1920 144 1920 216C1920 288 1920 360 1920 432C1920 504 1920 576 1920 648C1920 720 1920 792 1920 864C1920 936 1920 1008 1920 1044L1920 1080Z" fill="#da291c"></path><path d="M1409 1080L1468.7 1044C1528.3 1008 1647.7 936 1707.5 864C1767.3 792 1767.7 720 1692.7 648C1617.7 576 1467.3 504 1378.3 432C1289.3 360 1261.7 288 1241.2 216C1220.7 144 1207.3 72 1200.7 36L1194 0L1920 0L1920 36C1920 72 1920 144 1920 216C1920 288 1920 360 1920 432C1920 504 1920 576 1920 648C1920 720 1920 792 1920 864C1920 936 1920 1008 1920 1044L1920 1080Z" fill="#da291c"></path><path d="M1514 1080L1492.7 1044C1471.3 1008 1428.7 936 1438.5 864C1448.3 792 1510.7 720 1507.2 648C1503.7 576 1434.3 504 1418.3 432C1402.3 360 1439.7 288 1478.8 216C1518 144 1559 72 1579.5 36L1600 0L1920 0L1920 36C1920 72 1920 144 1920 216C1920 288 1920 360 1920 432C1920 504 1920 576 1920 648C1920 720 1920 792 1920 864C1920 936 1920 1008 1920 1044L1920 1080Z" fill="#d21c10"></path><path d="M1705 1080L1694.2 1044C1683.3 1008 1661.7 936 1657.2 864C1652.7 792 1665.3 720 1662.2 648C1659 576 1640 504 1621.2 432C1602.3 360 1583.7 288 1585.5 216C1587.3 144 1609.7 72 1620.8 36L1632 0L1920 0L1920 36C1920 72 1920 144 1920 216C1920 288 1920 360 1920 432C1920 504 1920 576 1920 648C1920 720 1920 792 1920 864C1920 936 1920 1008 1920 1044L1920 1080Z" fill="#c90a02"></path></svg>