<svg id="visual" viewBox="0 0 900 600" width="900" height="600" xmlns="http://www.w3.org/2000/svg" xmlns:xlink="http://www.w3.org/1999/xlink" version="1.1"><rect x="0" y="0" width="900" height="600" fill="#FFFFFF"></rect><path d="M463 0L473.7 14.3C484.3 28.7 505.7 57.3 528.5 85.8C551.3 114.3 575.7 142.7 556.8 171.2C538 199.7 476 228.3 454.5 257C433 285.7 452 314.3 472.3 343C492.7 371.7 514.3 400.3 502.2 428.8C490 457.3 444 485.7 424.7 514.2C405.3 542.7 412.7 571.3 416.3 585.7L420 600L0 600L0 585.7C0 571.3 0 542.7 0 514.2C0 485.7 0 457.3 0 428.8C0 400.3 0 371.7 0 343C0 314.3 0 285.7 0 257C0 228.3 0 199.7 0 171.2C0 142.7 0 114.3 0 85.8C0 57.3 0 28.7 0 14.3L0 0Z" fill="#c90a02"></path><path d="M478 0L470.7 14.3C463.3 28.7 448.7 57.3 438.5 85.8C428.3 114.3 422.7 142.7 441.5 171.2C460.3 199.7 503.7 228.3 505.5 257C507.3 285.7 467.7 314.3 460.2 343C452.7 371.7 477.3 400.3 496.2 428.8C515 457.3 528 485.7 516 514.2C504 542.7 467 571.3 448.5 585.7L430 600L0 600L0 585.7C0 571.3 0 542.7 0 514.2C0 485.7 0 457.3 0 428.8C0 400.3 0 371.7 0 343C0 314.3 0 285.7 0 257C0 228.3 0 199.7 0 171.2C0 142.7 0 114.3 0 85.8C0 57.3 0 28.7 0 14.3L0 0Z" fill="#cd1307"></path><path d="M371 0L385.3 14.3C399.7 28.7 428.3 57.3 432.8 85.8C437.3 114.3 417.7 142.7 419.5 171.2C421.3 199.7 444.7 228.3 430.3 257C416 285.7 364 314.3 329.3 343C294.7 371.7 277.3 400.3 279 428.8C280.7 457.3 301.3 485.7 304.3 514.2C307.3 542.7 292.7 571.3 285.3 585.7L278 600L0 600L0 585.7C0 571.3 0 542.7 0 514.2C0 485.7 0 457.3 0 428.8C0 400.3 0 371.7 0 343C0 314.3 0 285.7 0 257C0 228.3 0 199.7 0 171.2C0 142.7 0 114.3 0 85.8C0 57.3 0 28.7 0 14.3L0 0Z" fill="#d0190d"></path><path d="M194 0L208 14.3C222 28.7 250 57.3 248.2 85.8C246.3 114.3 214.7 142.7 220.3 171.2C226 199.7 269 228.3 292.2 257C315.3 285.7 318.7 314.3 317.7 343C316.7 371.7 311.3 400.3 313 428.8C314.7 457.3 323.3 485.7 322 514.2C320.7 542.7 309.3 571.3 303.7 585.7L298 600L0 600L0 585.7C0 571.3 0 542.7 0 514.2C0 485.7 0 457.3 0 428.8C0 400.3 0 371.7 0 343C0 314.3 0 285.7 0 257C0 228.3 0 199.7 0 171.2C0 142.7 0 114.3 0 85.8C0 57.3 0 28.7 0 14.3L0 0Z" fill="#d41f13"></path><path d="M252 0L230.2 14.3C208.3 28.7 164.7 57.3 170.3 85.8C176 114.3 231 142.7 244.8 171.2C258.7 199.7 231.3 228.3 210.7 257C190 285.7 176 314.3 165.5 343C155 371.7 148 400.3 161.3 428.8C174.7 457.3 208.3 485.7 226.7 514.2C245 542.7 248 571.3 249.5 585.7L251 600L0 600L0 585.7C0 571.3 0 542.7 0 514.2C0 485.7 0 457.3 0 428.8C0 400.3 0 371.7 0 343C0 314.3 0 285.7 0 257C0 228.3 0 199.7 0 171.2C0 142.7 0 114.3 0 85.8C0 57.3 0 28.7 0 14.3L0 0Z" fill="#d72417"></path><path d="M171 0L154.2 14.3C137.3 28.7 103.7 57.3 79.8 85.8C56 114.3 42 142.7 55.2 171.2C68.3 199.7 108.7 228.3 121.7 257C134.7 285.7 120.3 314.3 111.5 343C102.7 371.7 99.3 400.3 107 428.8C114.7 457.3 133.3 485.7 132.3 514.2C131.3 542.7 110.7 571.3 100.3 585.7L90 600L0 600L0 585.7C0 571.3 0 542.7 0 514.2C0 485.7 0 457.3 0 428.8C0 400.3 0 371.7 0 343C0 314.3 0 285.7 0 257C0 228.3 0 199.7 0 171.2C0 142.7 0 114.3 0 85.8C0 57.3 0 28.7 0 14.3L0 0Z" fill="#da291c"></path></svg>