<svg id="visual" viewBox="0 0 900 600" width="900" height="600" xmlns="http://www.w3.org/2000/svg" xmlns:xlink="http://www.w3.org/1999/xlink" version="1.1"><path d="M0 193L12.5 191C25 189 50 185 75 163C100 141 125 101 150 90C175 79 200 97 225 108C250 119 275 123 300 119C325 115 350 103 375 110C400 117 425 143 450 162C475 181 500 193 525 198C550 203 575 201 600 189C625 177 650 155 675 139C700 123 725 113 750 125C775 137 800 171 825 173C850 175 875 145 887.5 130L900 115L900 0L887.5 0C875 0 850 0 825 0C800 0 775 0 750 0C725 0 700 0 675 0C650 0 625 0 600 0C575 0 550 0 525 0C500 0 475 0 450 0C425 0 400 0 375 0C350 0 325 0 300 0C275 0 250 0 225 0C200 0 175 0 150 0C125 0 100 0 75 0C50 0 25 0 12.5 0L0 0Z" fill="#fafafa"></path><path d="M0 217L12.5 219C25 221 50 225 75 207C100 189 125 149 150 137C175 125 200 141 225 155C250 169 275 181 300 178C325 175 350 157 375 157C400 157 425 175 450 197C475 219 500 245 525 257C550 269 575 267 600 252C625 237 650 209 675 192C700 175 725 169 750 182C775 195 800 227 825 227C850 227 875 195 887.5 179L900 163L900 113L887.5 128C875 143 850 173 825 171C800 169 775 135 750 123C725 111 700 121 675 137C650 153 625 175 600 187C575 199 550 201 525 196C500 191 475 179 450 160C425 141 400 115 375 108C350 101 325 113 300 117C275 121 250 117 225 106C200 95 175 77 150 88C125 99 100 139 75 161C50 183 25 187 12.5 189L0 191Z" fill="#f9f9f9"></path><path d="M0 289L12.5 287C25 285 50 281 75 260C100 239 125 201 150 189C175 177 200 191 225 201C250 211 275 217 300 218C325 219 350 215 375 220C400 225 425 239 450 254C475 269 500 285 525 293C550 301 575 301 600 290C625 279 650 257 675 241C700 225 725 215 750 229C775 243 800 281 825 280C850 279 875 239 887.5 219L900 199L900 161L887.5 177C875 193 850 225 825 225C800 225 775 193 750 180C725 167 700 173 675 190C650 207 625 235 600 250C575 265 550 267 525 255C500 243 475 217 450 195C425 173 400 155 375 155C350 155 325 173 300 176C275 179 250 167 225 153C200 139 175 123 150 135C125 147 100 187 75 205C50 223 25 219 12.5 217L0 215Z" fill="#f8f8f8"></path><path d="M0 319L12.5 315C25 311 50 303 75 285C100 267 125 239 150 229C175 219 200 227 225 235C250 243 275 251 300 255C325 259 350 259 375 264C400 269 425 279 450 293C475 307 500 325 525 333C550 341 575 339 600 329C625 319 650 301 675 285C700 269 725 255 750 264C775 273 800 305 825 303C850 301 875 265 887.5 247L900 229L900 197L887.5 217C875 237 850 277 825 278C800 279 775 241 750 227C725 213 700 223 675 239C650 255 625 277 600 288C575 299 550 299 525 291C500 283 475 267 450 252C425 237 400 223 375 218C350 213 325 217 300 216C275 215 250 209 225 199C200 189 175 175 150 187C125 199 100 237 75 258C50 279 25 283 12.5 285L0 287Z" fill="#f8f8f8"></path><path d="M0 415L12.5 408C25 401 50 387 75 384C100 381 125 389 150 399C175 409 200 421 225 420C250 419 275 405 300 396C325 387 350 383 375 384C400 385 425 391 450 402C475 413 500 429 525 434C550 439 575 433 600 426C625 419 650 411 675 397C700 383 725 363 750 372C775 381 800 419 825 436C850 453 875 449 887.5 447L900 445L900 227L887.5 245C875 263 850 299 825 301C800 303 775 271 750 262C725 253 700 267 675 283C650 299 625 317 600 327C575 337 550 339 525 331C500 323 475 305 450 291C425 277 400 267 375 262C350 257 325 257 300 253C275 249 250 241 225 233C200 225 175 217 150 227C125 237 100 265 75 283C50 301 25 309 12.5 313L0 317Z" fill="#f7f7f7"></path><path d="M0 457L12.5 446C25 435 50 413 75 410C100 407 125 423 150 433C175 443 200 447 225 444C250 441 275 431 300 426C325 421 350 421 375 426C400 431 425 441 450 449C475 457 500 463 525 465C550 467 575 465 600 457C625 449 650 435 675 424C700 413 725 405 750 416C775 427 800 457 825 471C850 485 875 483 887.5 482L900 481L900 443L887.5 445C875 447 850 451 825 434C800 417 775 379 750 370C725 361 700 381 675 395C650 409 625 417 600 424C575 431 550 437 525 432C500 427 475 411 450 400C425 389 400 383 375 382C350 381 325 385 300 394C275 403 250 417 225 418C200 419 175 407 150 397C125 387 100 379 75 382C50 385 25 399 12.5 406L0 413Z" fill="#f3f3f3"></path><path d="M0 529L12.5 516C25 503 50 477 75 475C100 473 125 495 150 503C175 511 200 505 225 509C250 513 275 527 300 530C325 533 350 525 375 516C400 507 425 497 450 496C475 495 500 503 525 514C550 525 575 539 600 545C625 551 650 549 675 539C700 529 725 511 750 508C775 505 800 517 825 523C850 529 875 529 887.5 529L900 529L900 479L887.5 480C875 481 850 483 825 469C800 455 775 425 750 414C725 403 700 411 675 422C650 433 625 447 600 455C575 463 550 465 525 463C500 461 475 455 450 447C425 439 400 429 375 424C350 419 325 419 300 424C275 429 250 439 225 442C200 445 175 441 150 431C125 421 100 405 75 408C50 411 25 433 12.5 444L0 455Z" fill="#eeeeee"></path><path d="M0 547L12.5 540C25 533 50 519 75 519C100 519 125 533 150 538C175 543 200 539 225 541C250 543 275 551 300 551C325 551 350 543 375 537C400 531 425 527 450 529C475 531 500 539 525 547C550 555 575 563 600 566C625 569 650 567 675 560C700 553 725 541 750 541C775 541 800 553 825 558C850 563 875 561 887.5 560L900 559L900 527L887.5 527C875 527 850 527 825 521C800 515 775 503 750 506C725 509 700 527 675 537C650 547 625 549 600 543C575 537 550 523 525 512C500 501 475 493 450 494C425 495 400 505 375 514C350 523 325 531 300 528C275 525 250 511 225 507C200 503 175 509 150 501C125 493 100 471 75 473C50 475 25 501 12.5 514L0 527Z" fill="#eaeaea"></path><path d="M0 601L12.5 601C25 601 50 601 75 601C100 601 125 601 150 601C175 601 200 601 225 601C250 601 275 601 300 601C325 601 350 601 375 601C400 601 425 601 450 601C475 601 500 601 525 601C550 601 575 601 600 601C625 601 650 601 675 601C700 601 725 601 750 601C775 601 800 601 825 601C850 601 875 601 887.5 601L900 601L900 557L887.5 558C875 559 850 561 825 556C800 551 775 539 750 539C725 539 700 551 675 558C650 565 625 567 600 564C575 561 550 553 525 545C500 537 475 529 450 527C425 525 400 529 375 535C350 541 325 549 300 549C275 549 250 541 225 539C200 537 175 541 150 536C125 531 100 517 75 517C50 517 25 531 12.5 538L0 545Z" fill="#e6e6e6"></path></svg>